<?xml version="1.0" encoding="utf-8"?>
<!-- Generator: Adobe Illustrator 16.0.0, SVG Export Plug-In . SVG Version: 6.00 Build 0)  -->
<!DOCTYPE svg PUBLIC "-//W3C//DTD SVG 1.1//EN" "http://www.w3.org/Graphics/SVG/1.1/DTD/svg11.dtd">
<svg version="1.1" id="Capa_1" xmlns="http://www.w3.org/2000/svg" xmlns:xlink="http://www.w3.org/1999/xlink" x="0px" y="0px"
	 width="32px" height="32px" viewBox="0 0 32 32" enable-background="new 0 0 32 32" xml:space="preserve">
<g>
	<path fill="#F4B184" d="M16,29.5c-1.306,0-2.129-0.219-2.445-0.649c-0.387-0.526-0.067-1.542,0.241-2.524
		c0.383-1.217,0.817-2.598,0.073-3.61C13.261,21.887,12.031,21.5,10,21.5c-7.415,0-7.5-6.234-7.5-6.5C2.5,8.224,8.682,2.5,16,2.5
		c7.444,0,13.5,6.056,13.5,13.5C29.5,24.075,24.075,29.5,16,29.5z"/>
</g>
<circle fill="#FFE578" cx="8" cy="14" r="2.5"/>
<circle fill="#A9FDFF" cx="14" cy="9" r="2.5"/>
<circle fill="#7DFF9F" cx="22" cy="11" r="2.5"/>
<circle fill="#FF5757" cx="24" cy="19" r="2.5"/>
<path fill="#3D3D3D" d="M8,12c1.103,0,2,0.897,2,2s-0.897,2-2,2s-2-0.897-2-2S6.897,12,8,12 M8,11c-1.657,0-3,1.343-3,3s1.343,3,3,3
	s3-1.343,3-3S9.657,11,8,11L8,11z M14,7c1.103,0,2,0.897,2,2s-0.897,2-2,2s-2-0.897-2-2S12.897,7,14,7 M14,6c-1.657,0-3,1.343-3,3
	s1.343,3,3,3s3-1.343,3-3S15.657,6,14,6L14,6z M22,9c1.103,0,2,0.897,2,2s-0.897,2-2,2s-2-0.897-2-2S20.897,9,22,9 M22,8
	c-1.656,0-3,1.343-3,3s1.344,3,3,3s3-1.343,3-3S23.656,8,22,8L22,8z M24,17c1.103,0,2,0.897,2,2s-0.897,2-2,2s-2-0.897-2-2
	S22.897,17,24,17 M24,16c-1.656,0-3,1.344-3,3s1.344,3,3,3s3-1.344,3-3S25.656,16,24,16L24,16z M16,3c7.168,0,13,5.832,13,13
	c0,6.471-4.02,13-13,13c-1.591,0-1.965-0.341-2.042-0.445c-0.236-0.322,0.07-1.296,0.315-2.078c0.418-1.331,0.893-2.839,0-4.057
	C13.562,21.451,12.204,21,10,21c-6.755,0-6.995-5.39-7-6C3,8.495,8.953,3,16,3 M16,2C8.268,2,2,8,2,15c0,0,0,7,8,7c9,0-2,8,6,8
	c9,0,14-6.268,14-14C30,8.268,23.732,2,16,2L16,2z"/>
</svg>
